<svg xmlns="http://www.w3.org/2000/svg" xmlns:xlink="http://www.w3.org/1999/xlink" aria-hidden="true" focusable="false" width="0.88em" height="1em" style="-ms-transform: rotate(360deg); -webkit-transform: rotate(360deg); transform: rotate(360deg);" preserveAspectRatio="xMidYMid meet" viewBox="0 0 448 512"><path d="M225.9 32C103.3 32 0 130.5 0 252.1C0 256 .1 480 .1 480l225.8-.2c122.7 0 222.1-102.3 222.1-223.9C448 134.3 348.6 32 225.9 32zM224 384c-19.4 0-37.9-4.3-54.4-12.1L88.5 392l22.9-75c-9.8-18.1-15.4-38.9-15.4-61c0-70.7 57.3-128 128-128s128 57.3 128 128s-57.3 128-128 128z" fill="black"/><rect x="0" y="0" width="448" height="512" fill="rgba(0, 0, 0, 0)" /></svg>
